<?xml version="1.0" encoding="utf-8"?>
<svg version="1.1" xmlns:xlink="http://www.w3.org/1999/xlink" width="80px" height="82px" xmlns="http://www.w3.org/2000/svg">
  <g transform="matrix(1 0 0 1 -1645 -1216 )">
    <path d="M 75.7166759620747 0.502787068004456  C 76.7577616657371 -0.137123745819407  77.7691020635806 -0.106651802303989  78.7506971556051 0.594202898550727  C 79.7322922476297 1.32552954292084  80.1338538761852 2.30063173541434  79.9553820412716 3.51950947603122  L 68.5331846068042 73.726867335563  C 68.3844580777096 74.6105536975102  67.9085331846068 75.2961724266072  67.1054099274958 75.783723522854  C 66.6889756460309 76.0274990709773  66.2279234058375 76.149386845039  65.7222532069158 76.149386845039  C 65.3950548429076 76.149386845039  65.0381111730805 76.0732069862505  64.6514221974345 75.9208472686734  L 41.1377579475739 66.0936454849498  L 27.8416062465142 81.0401337792642  C 27.3061907417736 81.6800445930881  26.6071760550288 82  25.74456218628 82  C 25.328127904815 82  24.9860568878974 81.9390561129692  24.718349135527 81.8171683389075  C 24.1531883249675 81.6038647342995  23.7070087376836 81.2458193979933  23.3798103736754 80.7430323299889  C 23.0526120096672 80.2402452619844  22.8890128276631 79.6841322928279  23 79.0746934225195  L 23 58.4147157190635  L 1.82933630786392 49.5930880713489  C 0.728759992563674 49.166480862133  0.133853876185165 48.3285024154589  0.0446179587283882 47.0791527313266  C -0.0446179587283882 45.8907469342252  0.431306934374419 44.9918246005202  1.47239263803681 44.3823857302118  L 75.7166759620747 0.502787068004456  Z M 41.5393195761294 59.9230769230769  L 63.4913552704964 69.1103678929766  L 73.3519241494702 8.63879598662208  L 9.36977133296152 46.4392419175028  L 24.3614054656999 52.701226309922  L 62.8667038482989 23.4938684503902  L 41.5393195761294 59.9230769230769  Z " fill-rule="nonzero" fill="#f07d81" stroke="none" transform="matrix(1 0 0 1 1645 1216 )" />
  </g>
</svg>